<?xml version="1.0" encoding="utf-8"?>
<!-- Generator: Adobe Illustrator 25.2.1, SVG Export Plug-In . SVG Version: 6.00 Build 0)  -->
<svg version="1.1" id="Layer_1" xmlns="http://www.w3.org/2000/svg" xmlns:xlink="http://www.w3.org/1999/xlink" x="0px" y="0px"
	 viewBox="0 0 500 500" style="enable-background:new 0 0 500 500;" xml:space="preserve">
<style type="text/css">
	.st0{fill:#F9C611;}
	.st1{fill:#FFFFFF;}
</style>
<g id="XMLID_1_">
	<rect id="XMLID_3_" x="141.9" y="210.5" class="st0" width="216.1" height="207.6"/>
	<rect id="XMLID_5_" x="141.9" y="242.1" class="st1" width="160.3" height="14.6"/>
	<rect id="XMLID_6_" x="141.9" y="287" class="st1" width="160.3" height="14.6"/>
	<rect id="XMLID_7_" x="141.9" y="331.9" class="st1" width="160.3" height="14.6"/>
	<rect id="XMLID_8_" x="141.9" y="376.9" class="st1" width="160.3" height="14.6"/>
	<g id="XMLID_11_">
		<path id="XMLID_10_" class="st0" d="M324.9,196.9h-28.4c0.1-0.4,6.5-46.9-12-70.1c-8-9.9-19.5-15.2-35.3-16.1
			c-14.4-0.8-25,2.8-32.3,10.9c-16.4,18.3-14.4,62-12.2,75.2h-28.4c-0.4-2.5-9.8-62,19.1-94.3c13.3-14.9,32-21.8,55.4-20.5
			c24.2,1.3,43.1,10.4,56.3,26.9C333.6,142.2,325.3,194.7,324.9,196.9z"/>
	</g>
</g>
</svg>
