<?xml version="1.0" encoding="utf-8"?>
<!-- Generator: Adobe Illustrator 25.2.0, SVG Export Plug-In . SVG Version: 6.00 Build 0)  -->
<svg version="1.1" id="Layer_1" xmlns="http://www.w3.org/2000/svg" xmlns:xlink="http://www.w3.org/1999/xlink" x="0px" y="0px"
	 viewBox="0 0 139.6 45.6" style="enable-background:new 0 0 139.6 45.6;" xml:space="preserve">
<g id="XMLID_1_">
	<g id="XMLID_8_">
		<g id="XMLID_16_">
			<path id="XMLID_29_" d="M28.6,15.4v15.1h-3.3v-10l-3.8,10h-3.3l-4-9.7v9.7h-3V15.4h4.6L20,26.2l4.2-10.8
				C24.2,15.4,28.6,15.4,28.6,15.4z"/>
			<path id="XMLID_26_" d="M40.3,24.5l-2-5.9l-2.1,5.9H40.3z M46.4,30.4h-4l-1.1-3.3h-5.9l-1.2,3.3h-3.7l5.9-15.1h4.4L46.4,30.4z"/>
			<path id="XMLID_23_" d="M55.6,19.9c0-1.3-0.6-2-2.4-2h-1.3v4h1.4C54.7,21.9,55.6,21.3,55.6,19.9z M61,30.4h-4.2
				C56.4,30,56,29.3,55.7,29l-2.1-3.6c-0.4-0.7-0.7-0.8-1.2-0.8H52v5.9h-3.6V15.4h6c3.9,0,4.8,2.4,4.8,4.2c0,2-1.3,3.6-3.5,4.1l0,0
				c1,0.2,1.6,0.6,2.1,1.4l1.6,2.7C59.7,28.6,60.3,29.5,61,30.4z"/>
			<path id="XMLID_21_" d="M76.2,15.4l-5.6,15.1h-4.5l-5.6-15.1h4.3l3.7,11.8l3.8-11.8C72.3,15.4,76.2,15.4,76.2,15.4z"/>
			<path id="XMLID_19_" d="M78,15.4h3.7v15.1H78V15.4z"/>
			<path id="XMLID_17_" d="M95.3,30.4l-7.2-9.2v9.2H85v-15h3l6.9,8.9v-8.9h3.2v15.1h-2.8V30.4z"/>
		</g>
		<g id="XMLID_9_">
			<path id="XMLID_15_" d="M127.9,27.4c0-0.2-0.2-0.3-0.3-0.2l-10.3,4.3c-0.9,0.4-2,0.2-2.8-0.3l-6.3-4.3c-0.3-0.2-0.5-0.6-0.5-0.9
				l-0.2-5.5c0-0.2-0.2-0.3-0.3-0.1l-0.9,1c-0.1,0.1-0.2,0.3-0.2,0.4l-0.5,6.1c-0.1,0.4,0.1,0.7,0.5,0.9l9.8,5.1
				c1.2,0.6,2.6,0.5,3.7-0.2l7.6-4.9C127.8,28.2,127.8,27.9,127.9,27.4L127.9,27.4z"/>
			<path id="XMLID_14_" d="M125.2,17.4l1.2,8.3c0,0.2,0.3,0.4,0.5,0.3l0.5-0.1c0.2-0.1,0.3-0.2,0.3-0.4l0.4-8.2
				c0-0.6-0.3-1.1-0.8-1.3l-5.3-2.3c-0.5-0.2-0.6-0.2-1-0.1l-0.9,0.2c-0.2,0-0.2,0.3,0,0.4l4.7,2.7C125.1,17,125.2,17.1,125.2,17.4z
				"/>
			<path id="XMLID_13_" d="M122.2,18.7l-0.4-2.1c-0.1-0.2-0.1-0.4-0.4-0.5l-2.8-1.7c-0.2-0.1-0.3-0.1-0.5,0l-5.3,2
				c-0.2,0.1-0.2,0.1-0.2,0.3l-0.3,3.9c0,0.2,0.2,0.3,0.4,0.1l2.5-3.8c0-0.1,0.1-0.1,0.2-0.1l3.8-0.5c0.1,0,0.1,0,0.2,0.1l2.6,2.3
				C122,19,122.2,18.9,122.2,18.7z"/>
			<path id="XMLID_12_" d="M115.7,22c0.1,0.1,0.2,0.1,0.3,0l0.5-1.7c0-0.1,0.1-0.2,0.2-0.2h1.7c0.2,0,0.2,0.1,0.2,0.2l0.4,0.9
				c0,0.1,0.2,0.1,0.3,0l0.8-1.3c0.2-0.3,0.2-0.5,0-0.7l-0.8-0.8c-0.2-0.2-0.3-0.3-0.6-0.3l-2.5-0.2c-0.3,0-0.4,0.1-0.5,0.3
				l-1.1,2.3c-0.1,0.2,0,0.5,0.2,0.7L115.7,22z"/>
			<path id="XMLID_11_" d="M118.9,12l-2-0.3c-0.4-0.1-0.5-0.1-0.9,0.1l-6.4,3.6c-0.8,0.5-1,0.8-1,1.4l0.4,7.7c0,0.2,0.1,0.4,0.3,0.6
				l4.6,3.8c0.5,0.5,1.3,0.6,2,0.4l6.8-1.9c1.3-0.4,2.1-1.6,2-2.9l-0.6-5.8c0-0.2-0.3-0.3-0.4-0.1l-1,2.7l-1.4,3.6
				c-0.2,0.5-0.6,0.8-1.2,0.9l-4.2,0.5c-0.8,0.1-0.9,0-1.5-0.6l-3.4-3.5c-0.4-0.5-0.4-0.7-0.3-1.4l0.7-4.5c0.1-0.3,0.2-0.4,0.4-0.5
				l7.3-3.4C119.2,12.4,119.2,12,118.9,12z"/>
			<path id="XMLID_10_" d="M121.1,20.9l-1.3,3.4c-0.1,0.3-0.3,0.4-0.6,0.4l-4,0.1c-0.3,0-0.5-0.1-0.6-0.4l-1.1-2.4
				c-0.1-0.2,0.1-0.3,0.2-0.2l2,1.3c0.1,0.1,0.3,0.1,0.4,0.1l2-0.1c0.2,0,0.3-0.1,0.4-0.2l2.3-2.2C121,20.7,121.2,20.8,121.1,20.9z"
				/>
		</g>
	</g>
	<g id="XMLID_2_">
		<path id="XMLID_3_" d="M102.9,16.6c0,0.8-0.6,1.4-1.4,1.4s-1.4-0.6-1.4-1.4c0-0.8,0.6-1.4,1.4-1.4S102.9,15.8,102.9,16.6z
			 M102.7,16.6c0-0.7-0.5-1.3-1.3-1.3s-1.3,0.5-1.3,1.3c0,0.7,0.5,1.3,1.3,1.3S102.7,17.3,102.7,16.6z M102,17.2
			c0,0,0.1,0.1,0.1,0.2H102l-0.1-0.1l-0.2-0.4c-0.1-0.1-0.1-0.2-0.3-0.2h-0.2v0.7h-0.1v-1.5h0.5c0.3,0,0.5,0.1,0.5,0.4
			c0,0.2-0.1,0.4-0.4,0.4l0,0c0.1,0,0.1,0.1,0.2,0.2L102,17.2z M101.4,16.6c0.3,0,0.5-0.1,0.5-0.3c0-0.2-0.1-0.3-0.4-0.3h-0.3v0.6
			C101.2,16.6,101.4,16.6,101.4,16.6z"/>
	</g>
</g>
</svg>
