<?xml version="1.0" encoding="utf-8"?>
<!-- Generator: Adobe Illustrator 25.2.1, SVG Export Plug-In . SVG Version: 6.00 Build 0)  -->
<svg version="1.1" id="Layer_1" xmlns="http://www.w3.org/2000/svg" xmlns:xlink="http://www.w3.org/1999/xlink" x="0px" y="0px"
	 viewBox="0 0 500 500" style="enable-background:new 0 0 500 500;" xml:space="preserve">
<style type="text/css">
	.st0{fill:#F9C611;}
	.st1{fill:#FFFFFF;}
</style>
<g id="XMLID_27_">
	<path id="XMLID_13_" class="st0" d="M338.9,393.5H95.7c-6.6,0-12-5.4-12-12V138.4c0-6.6,5.4-12,12-12h243.1c6.6,0,12,5.4,12,12
		v243.1C350.9,388.1,345.5,393.5,338.9,393.5z"/>
	<g id="XMLID_14_">
		<circle id="XMLID_23_" class="st0" cx="217.3" cy="259.9" r="82.4"/>
		<path id="XMLID_19_" class="st1" d="M217.3,358.8c-54.5,0-98.9-44.4-98.9-98.9s44.4-98.9,98.9-98.9s98.9,44.4,98.9,98.9
			S271.8,358.8,217.3,358.8z M217.3,193.9c-36.4,0-66,29.6-66,66s29.6,66,66,66s66-29.6,66-66S253.7,193.9,217.3,193.9z"/>
	</g>
	<rect id="XMLID_24_" x="320.9" y="365.5" class="st0" width="109.9" height="28"/>
	<rect id="XMLID_25_" x="405.6" y="335.7" class="st0" width="25.2" height="57.8"/>
	<rect id="XMLID_26_" x="364.8" y="349.4" class="st0" width="25.2" height="44.1"/>
</g>
</svg>
