<?xml version="1.0" encoding="utf-8"?>
<!-- Generator: Adobe Illustrator 22.1.0, SVG Export Plug-In . SVG Version: 6.00 Build 0)  -->
<svg version="1.1" id="Layer_1" xmlns="http://www.w3.org/2000/svg" xmlns:xlink="http://www.w3.org/1999/xlink" x="0px" y="0px"
	 viewBox="0 0 30 25" enable-background="new 0 0 30 25" xml:space="preserve">
<g>
	<g>
		<path fill="#FFFFFF" d="M27.723,13.5H0.692c-0.334,0-0.604-0.448-0.604-1s0.27-1,0.604-1h27.031c0.334,0,0.604,0.448,0.604,1
			S28.057,13.5,27.723,13.5z"/>
	</g>
	<g>
		<g>
			<path fill="#FFFFFF" d="M16.34,23.155c-0.251-0.516-0.134-1.203,0.261-1.533l10.896-9.123L16.6,3.376
				c-0.394-0.329-0.511-1.017-0.261-1.533c0.251-0.516,0.777-0.666,1.168-0.34l12.014,10.059c0.242,0.204,0.391,0.557,0.391,0.936
				c0,0.379-0.148,0.733-0.391,0.937L17.507,23.495c-0.142,0.117-0.298,0.173-0.454,0.173C16.775,23.668,16.501,23.486,16.34,23.155
				z"/>
		</g>
	</g>
</g>
<g>
</g>
<g>
</g>
<g>
</g>
<g>
</g>
<g>
</g>
<g>
</g>
<g>
</g>
<g>
</g>
<g>
</g>
<g>
</g>
<g>
</g>
<g>
</g>
<g>
</g>
<g>
</g>
<g>
</g>
</svg>
