<?xml version="1.0" encoding="utf-8"?>
<!-- Generator: Adobe Illustrator 25.2.1, SVG Export Plug-In . SVG Version: 6.00 Build 0)  -->
<svg version="1.1" id="Layer_1" xmlns="http://www.w3.org/2000/svg" xmlns:xlink="http://www.w3.org/1999/xlink" x="0px" y="0px"
	 viewBox="0 0 500 500" style="enable-background:new 0 0 500 500;" xml:space="preserve">
<style type="text/css">
	.st0{fill:#FFFFFF;}
	.st1{fill:#F9C611;}
</style>
<g id="XMLID_119_">
	<g id="XMLID_17_">
		<circle id="XMLID_23_" class="st0" cx="145.6" cy="154.7" r="10.4"/>
	</g>
	<g id="XMLID_15_">
		<circle id="XMLID_16_" class="st0" cx="145.6" cy="154.7" r="10.4"/>
	</g>
	<g id="XMLID_2_">
		<path id="XMLID_118_" class="st1" d="M118.9,218.1v183.3c0,5.6,4.5,10.1,10.1,10.1h43.1c-1.5-2.3-2.7-4.8-3.4-7.6L118.9,218.1z"/>
		<path id="XMLID_110_" class="st1" d="M232.5,389.5l-96.2-166.6l47.4,177.1c0.7,2.6,2.4,4.7,4.7,6.1c2.3,1.4,5.1,1.7,7.6,1
			l41.7-11.2C235.7,394.1,233.9,392,232.5,389.5z"/>
		<path id="XMLID_82_" class="st1" d="M115.5,145.3l3.5,13v-19.3l-1.2,0.7c-1,0.6-1.8,1.3-2.6,2.1
			C115.1,142.9,115.2,144.1,115.5,145.3z"/>
		<polygon id="XMLID_75_" class="st1" points="142.1,127.7 138.4,127.7 135.2,129.6 		"/>
		<polygon id="XMLID_74_" class="st1" points="118.9,158.2 118.9,161.9 120.8,165 		"/>
		<path id="XMLID_45_" class="st1" d="M408.8,287.7L326,144.3l-3.4-6v23.1l0,0v-23.1l-11.5-20l0,0l-1.7-2.9l-19.6-33.9l-4.5-7.8
			L277,59.3c-1.3-2.3-3.5-4-6.1-4.7c-0.9-0.2-1.8-0.4-2.7-0.4c-1.7,0-3.5,0.5-5,1.3l-76.1,44l-21.8,12.6h0l-4.1,2.4l-9.3,5.4
			l-13.4,7.8h3.7l-6.9,1.8l-16.2,9.4v19.3l1.8,6.8l125.1,216.7c2.8,4.8,9,6.5,13.8,3.7l47.4-27.4l7.8-4.5l7.8-4.5l36.6-21.1l7-4l7-4
			l32-18.5C409.9,298.6,411.6,292.5,408.8,287.7z M187.7,115.5l12.2-3.3h0L187.7,115.5z M303.8,121.3L303.8,121.3
			c0.6,0.3,1.2,0.5,1.8,0.9C305,121.9,304.4,121.6,303.8,121.3z M314.8,162.4L314.8,162.4l0-24.6c0-2.5-0.5-4.8-1.4-7
			c0.9,2.1,1.4,4.5,1.4,7V162.4z"/>
		<path id="XMLID_69_" class="st1" d="M115.5,145.3c-0.3-1.2-0.4-2.3-0.3-3.5c-1,1.1-1.7,2.5-2.1,4c-0.7,2.6-0.4,5.3,1,7.6l4.9,8.5
			v-3.6L115.5,145.3z"/>
		<path id="XMLID_22_" class="st0" d="M311,118.3l-0.6-2.3c-0.4-0.2-0.7-0.4-1.1-0.6L311,118.3z"/>
	</g>
	<g id="XMLID_3_">
		<circle id="XMLID_5_" class="st0" cx="145.6" cy="154.7" r="10.4"/>
	</g>
</g>
</svg>
